<svg width="317" height="84" viewBox="0 0 317 84" fill="none" xmlns="http://www.w3.org/2000/svg">
<path d="M113.19 60V30.373H102.272V25.868H129.832V30.373H118.967V60H113.19ZM215.774 60V25.868H220.862L238.67 50.99V25.868H244.394V60H239.306L221.551 34.931V60H215.774Z" fill="#EEA956"/>
<path d="M147.023 60.53C142.5 60.53 139.197 59.47 137.112 57.35C135.063 55.1947 134.038 51.838 134.038 47.28C134.038 43.252 134.939 40.0897 136.741 37.793C138.578 35.4963 141.546 34.348 145.645 34.348C148.083 34.348 150.062 34.8073 151.581 35.726C153.1 36.6093 154.213 37.8107 154.92 39.33C155.662 40.8493 156.033 42.5453 156.033 44.418V48.976H136.953C137.094 52.2267 137.942 54.5763 139.497 56.025C141.052 57.4383 143.755 58.145 147.606 58.145C149.938 58.145 152.199 57.7033 154.39 56.82V59.205C152.235 60.0883 149.779 60.53 147.023 60.53ZM136.953 46.697H153.383V44.312C153.383 41.98 152.782 40.1427 151.581 38.8C150.38 37.4573 148.419 36.786 145.698 36.786C142.377 36.786 140.08 37.6517 138.808 39.383C137.571 41.079 136.953 43.517 136.953 46.697ZM174.339 60.53C169.993 60.53 166.83 59.3817 164.852 57.085C162.873 54.7883 161.884 51.573 161.884 47.439C161.884 43.0223 163.032 39.7363 165.329 37.581C167.661 35.4257 170.805 34.348 174.763 34.348C176.388 34.348 177.695 34.4717 178.685 34.719C179.674 34.931 180.646 35.2667 181.6 35.726V38.111C179.727 37.2277 177.607 36.786 175.24 36.786C171.918 36.786 169.339 37.634 167.502 39.33C165.664 41.026 164.746 43.729 164.746 47.439C164.746 51.0783 165.523 53.7813 167.078 55.548C168.668 57.2793 171.318 58.145 175.028 58.145C176.158 58.145 177.289 58.0213 178.42 57.774C179.586 57.5267 180.663 57.191 181.653 56.767V59.205C180.663 59.629 179.55 59.947 178.314 60.159C177.112 60.4063 175.787 60.53 174.339 60.53ZM186.804 60V24.278H189.719V37.899C190.956 36.839 192.369 35.991 193.959 35.355C195.584 34.6837 197.528 34.348 199.789 34.348C202.828 34.348 205.071 35.0723 206.52 36.521C208.004 37.9697 208.746 40.2663 208.746 43.411V60H205.831V43.464C205.831 40.9907 205.301 39.2593 204.241 38.27C203.216 37.2807 201.361 36.786 198.676 36.786C196.945 36.786 195.302 37.1393 193.747 37.846C192.192 38.5173 190.85 39.4007 189.719 40.496V60H186.804ZM263.685 60.53C259.162 60.53 255.859 59.47 253.774 57.35C251.725 55.1947 250.7 51.838 250.7 47.28C250.7 43.252 251.601 40.0897 253.403 37.793C255.24 35.4963 258.208 34.348 262.307 34.348C264.745 34.348 266.724 34.8073 268.243 35.726C269.762 36.6093 270.875 37.8107 271.582 39.33C272.324 40.8493 272.695 42.5453 272.695 44.418V48.976H253.615C253.756 52.2267 254.604 54.5763 256.159 56.025C257.714 57.4383 260.417 58.145 264.268 58.145C266.6 58.145 268.861 57.7033 271.052 56.82V59.205C268.897 60.0883 266.441 60.53 263.685 60.53ZM253.615 46.697H270.045V44.312C270.045 41.98 269.444 40.1427 268.243 38.8C267.042 37.4573 265.081 36.786 262.36 36.786C259.039 36.786 256.742 37.6517 255.47 39.383C254.233 41.079 253.615 43.517 253.615 46.697ZM287.232 60.53C285.748 60.53 284.317 60.424 282.939 60.212C281.596 60.0353 280.448 59.788 279.494 59.47V56.873C280.66 57.2617 281.861 57.562 283.098 57.774C284.334 57.9507 285.589 58.039 286.861 58.039C289.334 58.039 291.101 57.721 292.161 57.085C293.221 56.4137 293.751 55.2653 293.751 53.64C293.751 52.5093 293.486 51.6613 292.956 51.096C292.461 50.4953 291.666 49.983 290.571 49.559C289.475 49.135 288.08 48.6403 286.384 48.075C284.97 47.5803 283.681 47.1033 282.515 46.644C281.384 46.1493 280.483 45.478 279.812 44.63C279.14 43.7467 278.805 42.5277 278.805 40.973C278.805 38.7823 279.529 37.1393 280.978 36.044C282.426 34.9133 284.776 34.348 288.027 34.348C289.299 34.348 290.5 34.4363 291.631 34.613C292.797 34.7543 293.821 34.9663 294.705 35.249V37.846C292.655 37.21 290.571 36.892 288.451 36.892C285.942 36.892 284.175 37.21 283.151 37.846C282.161 38.4467 281.667 39.4713 281.667 40.92C281.667 41.9093 281.879 42.6867 282.303 43.252C282.762 43.782 283.469 44.2413 284.423 44.63C285.412 45.0187 286.684 45.4603 288.239 45.955C290.111 46.5557 291.666 47.1563 292.903 47.757C294.175 48.3577 295.111 49.1173 295.712 50.036C296.348 50.9193 296.666 52.1207 296.666 53.64C296.666 56.1133 295.818 57.88 294.122 58.94C292.461 60 290.164 60.53 287.232 60.53ZM311.538 60.53C309.312 60.53 307.599 59.9117 306.397 58.675C305.196 57.4383 304.595 55.707 304.595 53.481V37.316H300.673V34.878H304.595V28.306L307.51 27.352V34.878H314.771L314.612 37.316H307.51V53.375C307.51 55.0003 307.881 56.2017 308.623 56.979C309.401 57.7563 310.655 58.145 312.386 58.145C312.846 58.145 313.323 58.1097 313.817 58.039C314.347 57.933 314.913 57.774 315.513 57.562V59.894C314.347 60.318 313.022 60.53 311.538 60.53Z" fill="#F6F6F6"/>
<rect width="84" height="84" rx="11" fill="#333646"/>
<path d="M25.5714 60.5186V26.208H14V22.8964H41.551V26.208H29.4286V60.5186H25.5714Z" fill="#F6F6F6"/>
<path d="M41.551 67V22.8964C41.551 22.8964 43.1125 23.0302 43.8125 23.25C45.0188 23.6288 45.3125 23.8182 45.875 24.3864C46.4375 24.9545 47.0612 25.8889 47.0612 25.8889L64.1621 55.3333V17H68V60.5185L64.1621 60.5186L45.0188 29.2222L45.4082 67H41.551Z" fill="#F6F6F6"/>
</svg>
