<svg width="214" height="54" viewBox="0 0 214 54" fill="none" xmlns="http://www.w3.org/2000/svg">
<path d="M11.9318 46.9996V9.94452H0.589844V6.49952H54.1364V9.94452H18.5V46.9996H11.9318Z" fill="#3258FB"/>
<path d="M45.1264 47.5296C40.6037 47.5296 37.3001 46.4696 35.2154 44.3496C33.1661 42.1942 32.1414 38.8376 32.1414 34.2796C32.1414 30.2516 33.0424 27.0893 34.8444 24.7926C36.6817 22.4959 39.6497 21.3476 43.7484 21.3476C46.1864 21.3476 48.1651 21.8069 49.6844 22.7256C51.2037 23.6089 52.3167 24.8103 53.0234 26.3296C53.7654 27.8489 54.1364 29.5449 54.1364 31.4176V35.9756H35.0564C35.1977 39.2262 36.0457 41.5759 37.6004 43.0246C39.1551 44.4379 41.8581 45.1446 45.7094 45.1446C48.0414 45.1446 50.3027 44.7029 52.4934 43.8196V46.2046C50.3381 47.0879 47.8824 47.5296 45.1264 47.5296ZM35.0564 33.6966H51.4864V31.3116C51.4864 28.9796 50.8857 27.1423 49.6844 25.7996C48.4831 24.4569 46.5221 23.7856 43.8014 23.7856C40.4801 23.7856 38.1834 24.6513 36.9114 26.3826C35.6747 28.0786 35.0564 30.5166 35.0564 33.6966Z" fill="black"/>
<path d="M72.4421 47.5296C68.0961 47.5296 64.9338 46.3812 62.9551 44.0846C60.9764 41.7879 59.9871 38.5726 59.9871 34.4386C59.9871 30.0219 61.1354 26.7359 63.4321 24.5806C65.7641 22.4253 68.9088 21.3476 72.8661 21.3476C74.4914 21.3476 75.7988 21.4713 76.7881 21.7186C77.7774 21.9306 78.7491 22.2663 79.7031 22.7256V25.1106C77.8304 24.2273 75.7104 23.7856 73.3431 23.7856C70.0218 23.7856 67.4424 24.6336 65.6051 26.3296C63.7678 28.0256 62.8491 30.7286 62.8491 34.4386C62.8491 38.0779 63.6264 40.7809 65.1811 42.5476C66.7711 44.2789 69.4211 45.1446 73.1311 45.1446C74.2618 45.1446 75.3924 45.0209 76.5231 44.7736C77.6891 44.5262 78.7668 44.1906 79.7561 43.7666V46.2046C78.7668 46.6286 77.6538 46.9466 76.4171 47.1586C75.2158 47.4059 73.8908 47.5296 72.4421 47.5296Z" fill="black"/>
<path d="M84.9075 46.9996V11.2776H87.8225V24.8986C89.0591 23.8386 90.4725 22.9906 92.0625 22.3546C93.6878 21.6833 95.6311 21.3476 97.8925 21.3476C100.931 21.3476 103.175 22.0719 104.623 23.5206C106.107 24.9693 106.849 27.2659 106.849 30.4106V46.9996H103.934V30.4636C103.934 27.9902 103.404 26.2589 102.344 25.2696C101.32 24.2803 99.4648 23.7856 96.7795 23.7856C95.0481 23.7856 93.4051 24.1389 91.8505 24.8456C90.2958 25.5169 88.9531 26.4003 87.8225 27.4956V46.9996H84.9075Z" fill="black"/>
<path d="M113 53.9995V6.36807H118.17L137.621 40.3216V0H143V46.9996H137.992L118.594 13.0991V53.9995H113Z" fill="#3258FB"/>
<path d="M161.581 47.5296C157.059 47.5296 153.755 46.4696 151.67 44.3496C149.621 42.1942 148.596 38.8376 148.596 34.2796C148.596 30.2516 149.497 27.0893 151.299 24.7926C153.137 22.4959 156.105 21.3476 160.203 21.3476C162.641 21.3476 164.62 21.8069 166.139 22.7256C167.659 23.6089 168.772 24.8103 169.478 26.3296C170.22 27.8489 170.591 29.5449 170.591 31.4176V35.9756H151.511C151.653 39.2262 152.501 41.5759 154.055 43.0246C155.61 44.4379 158.313 45.1446 162.164 45.1446C164.496 45.1446 166.758 44.7029 168.948 43.8196V46.2046C166.793 47.0879 164.337 47.5296 161.581 47.5296ZM151.511 33.6966H167.941V31.3116C167.941 28.9796 167.341 27.1423 166.139 25.7996C164.938 24.4569 162.977 23.7856 160.256 23.7856C156.935 23.7856 154.638 24.6513 153.366 26.3826C152.13 28.0786 151.511 30.5166 151.511 33.6966Z" fill="black"/>
<path d="M185.128 47.5296C183.644 47.5296 182.213 47.4236 180.835 47.2116C179.492 47.0349 178.344 46.7876 177.39 46.4696V43.8726C178.556 44.2612 179.757 44.5616 180.994 44.7736C182.231 44.9502 183.485 45.0386 184.757 45.0386C187.23 45.0386 188.997 44.7206 190.057 44.0846C191.117 43.4132 191.647 42.2649 191.647 40.6396C191.647 39.5089 191.382 38.6609 190.852 38.0956C190.357 37.4949 189.562 36.9826 188.467 36.5586C187.372 36.1346 185.976 35.6399 184.28 35.0746C182.867 34.5799 181.577 34.1029 180.411 33.6436C179.28 33.1489 178.379 32.4776 177.708 31.6296C177.037 30.7462 176.701 29.5273 176.701 27.9726C176.701 25.7819 177.425 24.1389 178.874 23.0436C180.323 21.9129 182.672 21.3476 185.923 21.3476C187.195 21.3476 188.396 21.4359 189.527 21.6126C190.693 21.7539 191.718 21.9659 192.601 22.2486V24.8456C190.552 24.2096 188.467 23.8916 186.347 23.8916C183.838 23.8916 182.072 24.2096 181.047 24.8456C180.058 25.4463 179.563 26.4709 179.563 27.9196C179.563 28.9089 179.775 29.6862 180.199 30.2516C180.658 30.7816 181.365 31.2409 182.319 31.6296C183.308 32.0182 184.58 32.4599 186.135 32.9546C188.008 33.5552 189.562 34.1559 190.799 34.7566C192.071 35.3572 193.007 36.1169 193.608 37.0356C194.244 37.9189 194.562 39.1202 194.562 40.6396C194.562 43.1129 193.714 44.8796 192.018 45.9396C190.357 46.9996 188.061 47.5296 185.128 47.5296Z" fill="black"/>
<path d="M209.435 47.5296C207.209 47.5296 205.495 46.9112 204.294 45.6746C203.092 44.4379 202.492 42.7066 202.492 40.4806V24.3156H198.57V21.8776H202.492V15.3056L205.407 14.3516V21.8776H212.668L212.509 24.3156H205.407V40.3746C205.407 41.9999 205.778 43.2012 206.52 43.9786C207.297 44.7559 208.551 45.1446 210.283 45.1446C210.742 45.1446 211.219 45.1092 211.714 45.0386C212.244 44.9326 212.809 44.7736 213.41 44.5616V46.8936C212.244 47.3176 210.919 47.5296 209.435 47.5296Z" fill="black"/>
</svg>
