<svg width="173" height="206" viewBox="0 0 173 206" fill="none" xmlns="http://www.w3.org/2000/svg">
<mask id="path-1-outside-1_155_95" maskUnits="userSpaceOnUse" x="8.47514" y="4.15047" width="131.689" height="172.43" fill="#F6F6F6">
<rect fill="white" x="8.47514" y="4.15047" width="131.689" height="172.43"/>
<path fill-rule="evenodd" clip-rule="evenodd" d="M132.685 32.5291L96.4485 11.0819L33.2379 117.88C32.7467 118.241 32.4147 118.825 32.4269 119.524L33.066 156.162C33.092 157.651 34.679 158.59 35.9973 157.897L68.4233 140.829C69.0415 140.503 69.3935 139.932 69.4739 139.327L132.685 32.5291Z"/>
</mask>
<path fill-rule="evenodd" clip-rule="evenodd" d="M132.685 32.5291L96.4485 11.0819L33.2379 117.88C32.7467 118.241 32.4147 118.825 32.4269 119.524L33.066 156.162C33.092 157.651 34.679 158.59 35.9973 157.897L68.4233 140.829C69.0415 140.503 69.3935 139.932 69.4739 139.327L132.685 32.5291Z" fill="#d9d9d9"/>
<path d="M96.4485 11.0819L98.9952 6.77911L94.6924 4.2324L92.1457 8.53522L96.4485 11.0819ZM132.685 32.5291L136.988 35.0758L139.534 30.7729L135.231 28.2262L132.685 32.5291ZM33.2379 117.88L36.2 121.908L37.0215 121.304L37.5408 120.427L33.2379 117.88ZM32.4269 119.524L27.4276 119.611L27.4276 119.611L32.4269 119.524ZM33.066 156.162L38.0653 156.074L38.0653 156.074L33.066 156.162ZM35.9973 157.897L33.6684 153.472L33.6684 153.472L35.9973 157.897ZM68.4233 140.829L70.7522 145.253L70.7522 145.253L68.4233 140.829ZM69.4739 139.327L65.1711 136.781L64.6521 137.658L64.5176 138.668L69.4739 139.327ZM93.9018 15.3848L130.138 36.8319L135.231 28.2262L98.9952 6.77911L93.9018 15.3848ZM37.5408 120.427L100.751 13.6286L92.1457 8.53522L28.9351 115.333L37.5408 120.427ZM37.4261 119.436C37.4441 120.466 36.9259 121.374 36.2 121.908L30.2759 113.852C28.5675 115.108 27.3853 117.184 27.4276 119.611L37.4261 119.436ZM38.0653 156.074L37.4261 119.436L27.4276 119.611L28.0668 156.249L38.0653 156.074ZM33.6684 153.472C35.6458 152.431 38.0263 153.84 38.0653 156.074L28.0668 156.249C28.1578 161.462 33.7122 164.75 38.3262 162.321L33.6684 153.472ZM66.0944 136.404L33.6684 153.472L38.3262 162.321L70.7522 145.253L66.0944 136.404ZM64.5176 138.668C64.6365 137.775 65.1835 136.884 66.0944 136.404L70.7522 145.253C72.8994 144.123 74.1504 142.089 74.4302 139.987L64.5176 138.668ZM128.382 29.9823L65.1711 136.781L73.7767 141.874L136.988 35.0758L128.382 29.9823Z" fill="#d9d9d9" mask="url(#path-1-outside-1_155_95)"/>
<path d="M165.055 197.381L165.342 195.209L162.864 194.881C165.342 195.209 165.342 195.209 165.343 195.208L165.343 195.207L165.343 195.204L165.344 195.196L165.347 195.172C165.349 195.154 165.352 195.129 165.356 195.099C165.363 195.038 165.373 194.953 165.383 194.848C165.404 194.636 165.43 194.339 165.452 193.975C165.496 193.25 165.526 192.242 165.467 191.106C165.355 188.945 164.903 185.851 163.187 183.493C161.697 181.447 160.061 180.097 158.174 179.305C156.33 178.531 154.453 178.381 152.672 178.381H152.375H152.079H151.783H151.488H151.193H150.898H150.604H150.311H150.017H149.724H149.432H149.14H148.848H148.557H148.266H147.975H147.685H147.395H147.106H146.817H146.528H146.24H145.952H145.665H145.378H145.091H144.805H144.519H144.233H143.948H143.663H143.379H143.095H142.811H142.527H142.244H141.962H141.68H141.398H141.116H140.835H140.554H140.273H139.993H139.713H139.434H139.155H138.876H138.598H138.32H138.042H137.764H137.487H137.21H136.934H136.658H136.382H136.107H135.832H135.557H135.282H135.008H134.734H134.461H134.187H133.915H133.642H133.37H133.098H132.826H132.555H132.284H132.013H131.742H131.472H131.202H130.933H130.663H130.394H130.126H129.857H129.589H129.321H129.054H128.787H128.52H128.253H127.986H127.72H127.454H127.189H126.923H126.658H126.393H126.129H125.865H117.536H117.28H117.023H116.767H116.511H116.256H116H115.745H115.49H115.235H114.98H114.726H114.471H114.217H113.963H113.709H113.456H113.202H112.949H112.696H112.443H112.191H111.938H111.686H111.434H111.182H110.93H110.678H110.427H110.175H109.924H109.673H109.422H109.171H108.921H108.67H108.42H108.17H107.92H107.67H107.421H107.171H106.922H106.673H106.424H105.926H105.429H104.932H104.436H103.94H103.445H102.95H102.456H101.962H101.468H100.975H100.483H100.236H99.9904H99.4985H99.007H98.5159H98.0251H97.5346H97.2895H97.0444H96.5546H96.065H95.5757H95.3311H95.0866H94.5978H94.1092H93.6208H93.3767H93.1327H92.6447H92.1569H91.6693H91.4256H91.1819H90.6945H90.2073H89.9638H89.7202H89.2333H88.7464H88.5029H88.2595H87.7728H87.286H87.0427H86.7994H86.3127H86.0694H85.8261H85.5827H85.3394H85.0961H84.8527H84.6094H84.366H84.1227H83.8793H83.6359H83.3925H83.149H82.9056H82.6621H82.4186H82.1751H81.9316H81.688H81.4444H81.2008H80.9571H80.7134H80.4697H80.2259H79.9821H79.7383H79.4944H79.2505H79.0065H78.7624H78.5184H78.2742H78.0301H77.7858H77.5415H77.2972H77.0528H76.8083H76.5638H76.3192H76.0746H75.8298H75.5851H75.3402H75.0953H74.8503H74.6052H74.36H74.1148H73.8695H73.6241H73.3786H73.133H72.8874H72.6417H72.3958H72.1499H71.9039H71.6578H71.4116H71.1653H70.9189H70.6724H70.4258H70.179H69.9322H69.6853H69.4383H69.1911H68.9439H68.6965H68.449H68.2014H67.9537H67.7058H67.4578H67.2097H66.9615H66.7132H66.4647H66.2161H64.2223H63.7224H63.4723H63.2219H62.7209H62.4701H62.2192H61.7168H61.4654H61.2139H60.7102H60.4581H60.2059H59.7009H59.4481H59.1952H58.6887H58.4353H58.1816H57.6737H57.4195H57.1651H56.6556H56.4006H56.1454H55.6345H55.3787H55.1227H54.6101H54.3534H54.0966H53.5823H53.3249H53.0672H52.5512H52.2928H52.0342H51.5164H51.2572H50.9977H50.4781H50.2179H49.9575H49.436H48.9135H48.6519H48.39H47.8656H47.603H47.3401H46.8136H46.55H46.2861H45.7576H45.2279H44.9627H44.6973H44.1655H43.8992H43.6327H43.0987H42.8313H42.5636H42.2956H42.0274H41.49H40.9515H40.6818H40.4118H39.8709H39.3288H39.0573H38.7855H38.241H37.6952H37.4218H37.1482H36.5999H36.0503H35.775H35.4994H34.9473H34.3938H34.1165H33.839H33.561H33.2828H33.0042H32.7253H32.1664H31.6061H31.3254H31.0444H30.7631H30.4813H29.9168H29.634H29.3509H28.7835H28.4992H28.2146H27.6443H27.3585H27.0724H26.4991H25.9243H25.3479H24.77H24.4804H24.1905H23.6095H23.3183H23.0268H22.4426H21.8568H21.5633H21.2693H20.6803H20.0895H19.7935H19.4971H19.2003H18.9031C18.8449 178.381 18.7861 178.381 18.7268 178.381C17.2662 178.38 15.4667 178.378 13.7187 179.064C11.7727 179.828 10.1768 181.296 8.71372 183.641C7.1166 186.2 6.64942 189.169 6.53339 191.319C6.47384 192.423 6.50348 193.381 6.54825 194.068C6.57072 194.413 6.59724 194.693 6.61901 194.893C6.62991 194.993 6.63965 195.073 6.64715 195.132C6.6509 195.161 6.65409 195.185 6.65659 195.204L6.65981 195.227L6.661 195.235L6.66149 195.238L6.6617 195.24C6.6618 195.241 6.6619 195.241 9.13582 194.881L6.6619 195.241L6.97339 197.381H9.13582H162.864H165.055Z" fill="#d9d9d9" stroke="#d9d9d9" stroke-width="5"/>
</svg>
