<svg width="177" height="177" viewBox="0 0 177 177" fill="none" xmlns="http://www.w3.org/2000/svg">
<path d="M85.2489 128.994L28 166.717V13.4074C28.0002 13.3986 28.0007 13.3838 28.0015 13.3634C28.004 13.2986 28.01 13.1797 28.0238 13.0172C28.0519 12.6881 28.11 12.2051 28.2275 11.6477C28.4771 10.464 28.9195 9.30009 29.5828 8.47211C30.4209 7.42586 30.8748 7.27516 31.1094 7.2042C31.6475 7.04148 32.3602 7 34.3918 7H34.6312H34.8704H35.1092H35.3478H35.586H35.8239H36.0615H36.2987H36.5357H36.7724H37.0087H37.2448H37.4805H37.716H37.9511H38.186H38.4205H38.6548H38.8887H39.1224H39.3558H39.5888H39.8216H40.0541H40.2863H40.5182H40.7499H40.9812H41.2123H41.4431H41.6736H41.9038H42.1337H42.3634H42.5928H42.8219H43.0508H43.2793H43.5076H43.7357H43.9634H44.1909H44.4181H44.6451H44.8718H45.0983H45.3244H45.5504H45.776H46.0014H46.2266H46.4515H46.6761H46.9005H47.1247H47.3486H47.5722H47.7956H48.0187H48.2417H48.4643H48.6867H48.9089H49.1309H49.3526H49.5741H49.7953H50.0163H50.2371H50.4576H50.6779H50.898H51.1178H51.3375H51.5569H51.776H51.995H52.2137H52.4322H52.6505H52.8686H53.0865H53.3041H53.5215H53.7387H53.9557H54.1725H54.3891H54.6055H54.8217H55.0377H55.2534H55.469H55.6843H55.8995H56.1145H56.3292H56.5438H56.7582H56.9724H57.1864H57.4002H57.6138H57.8272H58.0404H58.2535H58.4663H58.679H58.8915H59.1038H59.316H59.5279H59.7397H59.9513H60.1628H60.374H60.5851H60.796H61.0068H61.2173H61.4278H61.638H61.8481H62.058H62.2678H62.4774H62.6868H62.8961H63.1052H63.3142H63.523H63.7316H63.9402H64.1485H64.3567H64.5648H64.7727H64.9805H65.1881H65.3956H65.6029H65.8101H66.0172H66.2241H66.4309H66.6375H66.8441H67.0504H67.2567H67.4628H67.6688H67.8747H68.0804H68.286H68.4915H68.6969H68.9021H69.1073H69.3123H69.5172H69.7219H69.9266H70.1311H70.3356H70.5399H70.7441H70.9482H71.1522H71.3561H71.5599H71.7636H71.9672H72.1706H72.374H72.5773H72.7805H72.9836H73.1866H73.3895H73.5923H73.795H73.9976H74.2001H74.4026H74.605H74.8072H75.0094H75.2116H75.4136H75.6155H75.8174H76.0192H76.2209H76.4226H76.6242H76.8257H77.0271H77.2285H77.4298H77.631H77.8322H78.0333H78.2343H78.4353H78.6362H78.837H79.0378H79.2386H79.4392H79.6399H79.8405H80.041H80.2415H80.4419H80.6423H80.8426H81.0429H81.2431H81.4433H81.6435H81.8436H82.0437H82.2437H82.4437H82.6437H82.8436H83.0435H83.2434H83.4432H83.643H83.8428H84.0426H84.2423H84.442H84.6417H84.8414H85.041H85.2406H85.4402H85.6398H85.8394H86.039H86.2385H86.4381H86.6376H86.8371H87.0366H87.2361H87.4356H87.6351H87.8346H88.0341H88.2336H88.4331H88.6326H88.8321H89.0316H89.2312H89.4307H89.6302H89.8298H90.0293H90.2289H90.4285H90.6281H90.8277H91.0273H91.227H91.4266H91.6263H91.826H92.0258H92.2255H92.4253H92.6252H92.825H93.0249H93.2248H93.4247H93.6247H93.8247H94.0248H94.2249H94.425H94.6252H94.8254H95.0257H95.226H95.4263H95.6267H95.8271H96.0276H96.2282H96.4288H96.6294H96.8301H97.0309H97.2317H97.4326H97.6335H97.8345H98.0356H98.2367H98.4379H98.6391H98.8404H99.0418H99.2433H99.4448H99.6464H99.8481H100.05H100.252H100.454H100.656H100.858H101.06H101.262H101.464H101.667H101.869H102.072H102.274H102.477H102.68H102.883H103.086H103.289H103.492H103.696H103.899H104.102H104.306H104.51H104.714H104.918H105.122H105.326H105.53H105.734H105.939H106.143H106.348H106.553H106.758H106.963H107.168H107.373H107.579H107.784H107.99H108.196H108.402H108.608H108.814H109.02H109.227H109.433H109.64H109.847H110.054H110.261H110.468H110.675H110.883H111.091H111.298H111.506H111.715H111.923H112.131H112.34H112.548H112.757H112.966H113.176H113.385H113.594H113.804H114.014H114.224H114.434H114.644H114.855H115.065H115.276H115.487H115.698H115.91H116.121H116.333H116.545H116.757H116.969H117.181H117.394H117.606H117.819H118.033H118.246H118.459H118.673H118.887H119.101H119.315H119.53H119.744H119.959H120.174H120.389H120.605H120.82H121.036H121.252H121.469H121.685H121.902H122.118H122.336H122.553H122.77H122.988H123.206H123.424H123.643H123.861H124.08H124.299H124.518H124.738H124.957H125.177H125.397H125.618H125.838H126.059H126.28H126.502H126.723H126.945H127.167H127.389H127.612H127.835H128.058H128.281H128.504H128.728H128.952H129.176H129.401H129.625H129.85H130.076H130.301H130.527H130.753H130.979H131.206H131.433H131.66H131.887H132.114H132.342H132.57H132.799H133.028H133.256H133.486H133.715H133.945H134.175H134.405H134.636H134.867H135.098H135.329H135.561H135.793H136.025H136.258H136.491H136.724H136.958H137.191H137.425H137.66H137.894H138.129H138.365H138.6H138.836H139.072H139.309H139.545H139.782H140.02H140.257H140.496H140.734H140.972H141.211H141.451H141.69H141.93H142.17H142.411H142.652H142.893H143.135H143.376H143.619C145.801 7 146.667 7.42589 147.457 8.21481C147.52 8.27865 147.726 8.58068 147.877 9.23239C147.941 9.50937 147.974 9.75944 147.989 9.92981C147.996 10.0043 147.999 10.0569 148 10.0818V166.717L90.7511 128.994L88 127.181L85.2489 128.994Z" stroke="#EEA956" stroke-width="10"/>
</svg>
