<svg width="83" height="96" viewBox="0 0 83 96" fill="none" xmlns="http://www.w3.org/2000/svg">
<path fill-rule="evenodd" clip-rule="evenodd" d="M43.9447 2.07461C42.7698 0.193389 40.0304 0.193393 38.8555 2.07462L27.2456 20.6654C26.717 21.5118 25.8022 22.04 24.8049 22.0746L2.8998 22.8337C0.6832 22.9105 -0.686541 25.283 0.355236 27.241L10.6504 46.5909C11.1191 47.4719 11.1191 48.5282 10.6504 49.4092L0.355234 68.7591C-0.686543 70.7171 0.683203 73.0896 2.89981 73.1664L24.8049 73.9255C25.8022 73.9601 26.717 74.4883 27.2456 75.3346L38.8555 93.9255C40.0304 95.8067 42.7699 95.8067 43.9447 93.9255L55.5546 75.3346C56.0832 74.4883 56.998 73.9601 57.9953 73.9255L79.9004 73.1664C82.117 73.0896 83.4867 70.7171 82.445 68.7591L72.1498 49.4092C71.6811 48.5282 71.6811 47.4719 72.1498 46.5909L82.445 27.241C83.4868 25.2829 82.117 22.9105 79.9004 22.8337L57.9953 22.0746C56.998 22.04 56.0832 21.5118 55.5546 20.6654L43.9447 2.07461ZM41 15.6637L49.0099 28.4899C50.0671 30.1827 51.8967 31.239 53.8913 31.3081L69.0041 31.8319L61.9012 45.1818C60.9638 46.9437 60.9638 49.0564 61.9012 50.8183L69.0041 64.1682L53.8913 64.6919C51.8967 64.7611 50.0671 65.8174 49.0099 67.5102L41 80.3364L32.99 67.5102C31.9329 65.8174 30.1032 64.7611 28.1087 64.6919L12.9959 64.1682L20.0987 50.8183C21.0361 49.0564 21.0361 46.9437 20.0987 45.1818L12.9959 31.8319L28.1087 31.3081C30.1032 31.239 31.9329 30.1827 32.99 28.4899L41 15.6637ZM38.4554 14.0746C39.6302 12.1934 42.3697 12.1934 43.5445 14.0746L51.5545 26.9008C52.0831 27.7472 52.9979 28.2754 53.9952 28.3099L69.108 28.8337C71.3246 28.9105 72.6943 31.2829 71.6525 33.241L64.5497 46.5909C64.081 47.4719 64.081 48.5282 64.5497 49.4092L71.6525 62.7591C72.6943 64.7171 71.3246 67.0896 69.108 67.1664L53.9952 67.6901C52.9979 67.7247 52.0831 68.2529 51.5545 69.0993L43.5445 81.9255C42.3697 83.8067 39.6302 83.8067 38.4554 81.9255L30.4454 69.0993C29.9169 68.2529 29.002 67.7247 28.0048 67.6901L12.892 67.1664C10.6754 67.0896 9.30561 64.7171 10.3474 62.7591L17.4502 49.4092C17.9189 48.5282 17.9189 47.4719 17.4502 46.5909L10.3474 33.241C9.30562 31.283 10.6754 28.9105 12.892 28.8337L28.0048 28.3099C29.002 28.2754 29.9169 27.7472 30.4454 26.9008L38.4554 14.0746Z" fill="#4EE2B1"/>
</svg>
